<?xml version="1.0" encoding="UTF-8" standalone="no"?>
<svg xmlns="http://www.w3.org/2000/svg" xmlns:xlink="http://www.w3.org/1999/xlink" version="1.1" width="130" height="130" viewBox="0 0 400 400" xml:space="preserve">
    <desc>Created with Fabric.js 3.6.2</desc>
    <defs></defs>
    <g transform="matrix(6.25 0 0 6.25 200 200)" id="Layer_2">
        <path style="stroke: none; stroke-width: 1; stroke-dasharray: none; stroke-linecap: butt; stroke-dashoffset: 0; stroke-linejoin: miter; stroke-miterlimit: 4; fill: rgb(0,0,0); fill-rule: nonzero; opacity: 1;" transform=" translate(-16, -16)" d="M 1 16 A 15 15 0 1 1 16 31 A 15 15 0 0 1 1 16 Z m 2 0 A 13 13 0 1 0 16 3 A 13 13 0 0 0 3 16 Z" stroke-linecap="round" />
    </g>
    <g transform="matrix(6.25 0 0 6.25 200 199.99)" id="Layer_2">
        <path style="stroke: none; stroke-width: 1; stroke-dasharray: none; stroke-linecap: butt; stroke-dashoffset: 0; stroke-linejoin: miter; stroke-miterlimit: 4; fill: rgb(0,0,0); fill-rule: nonzero; opacity: 1;" transform=" translate(-16, -16)" d="M 10.41 19.87 L 16 14.29 l 5.59 5.58 a 1 1 0 0 0 1.41 0 h 0 a 1 1 0 0 0 0 -1.41 L 16.64 12.1 a 0.91 0.91 0 0 0 -1.28 0 L 9 18.46 a 1 1 0 0 0 0 1.41 H 9 A 1 1 0 0 0 10.41 19.87 Z" stroke-linecap="round" />
    </g>
</svg>